<svg xmlns="http://www.w3.org/2000/svg" width="262.128" height="262.128"><path d="M100.729 197.092c-32.972-58.836-33.735-60.269-38.36-72.064-6.848-17.468-9.49-32.82-7.94-46.154 2.406-20.685 12.59-39.168 28.7-52.08C116.143.334 164.9 5.738 191.398 38.795c9.46 11.803 14.94 24.947 16.696 40.038 1.923 16.544-3.18 39.311-13.335 59.503-1.6 3.18-16.038 28.98-32.086 57.332s-29.558 52.382-30.022 53.4c-.463 1.018-1.055 1.84-1.314 1.824-.26-.014-14.033-24.224-30.607-53.8zm53.459-24.799c26.074-46.507 25.65-45.69 29.41-56.498 4.514-12.966 6.32-23.025 5.763-32.076-.584-9.468-1.935-14.54-6.18-23.2-2.797-5.71-4.63-8.085-11.424-14.81-5.995-5.932-9.44-8.656-13.293-10.507-19.963-9.595-42.016-8.577-59.057 2.725-20.063 13.306-30.03 36.924-25.415 60.225 3.34 16.865 7.81 26.847 28.72 64.12 8.962 15.975 18.962 33.81 22.223 39.631 3.26 5.821 6.109 10.58 6.329 10.574.22-.005 10.536-18.088 22.924-40.184zm-8.524-35.096c-9.642-2.8-14.016-13.599-9.28-22.905 2.358-4.63 4.603-6.785 9.28-8.906 4.607-2.089 10.716-2.15 14.647-.145 2.986 1.522 2.986 1.522 2.77-14.494-.217-16.017-.217-16.017-17.017-23.88-9.24-4.325-17.055-7.882-17.367-7.906-.312-.023-.672 10.877-.8 24.223-.233 24.264-.233 24.264-2.654 28.18-4.974 8.04-15.26 11.39-23.187 7.551-12.06-5.838-10.62-24.09 2.398-30.39 4.392-2.127 11.136-2.359 14.84-.51 1.439.717 2.916 1.304 3.28 1.304.368 0 .763-11.505.879-25.566.21-25.567.21-25.567 22.81-13.813 22.6 11.753 22.6 11.753 22.593 42.166-.008 30.226-.02 30.438-1.885 34.446-3.795 8.148-13.393 12.943-21.307 10.645z" style="display:inline;fill:#82b170"/></svg>